ply
format ascii 1.0
comment PCL generated
element vertex 25
property float x
property float y
property float z
element face 1
property list uchar int vertex_indices
end_header
-0.54154 0.023482 0.10052 
-0.46908 0.12553 0.01761 
-0.4599 0.13525 0.0012826 
-0.15088 0.2895 -0.14443 
-0.1287 0.29714 -0.13492 
-0.026908 0.32299 -0.094029 
0.21246 0.32003 -0.011547 
0.37438 0.245 0.026042 
0.45478 0.18794 0.039345 
0.48475 0.16047 0.044962 
0.70049 -0.067694 0.068979 
0.7305 -0.1224 0.06419 
0.70929 -0.16642 0.052159 
0.70581 -0.1703 0.050718 
0.68136 -0.17507 0.046143 
0.15095 -0.24385 -0.080629 
0.0033852 -0.25998 -0.10177 
-0.064406 -0.26042 -0.10505 
-0.19798 -0.25796 -0.11814 
-0.35493 -0.2289 -0.081347 
-0.44943 -0.18682 -0.031564 
-0.49958 -0.1601 0.010215 
-0.52566 -0.13267 0.039124 
-0.56058 -0.077041 0.08791 
-0.56053 -0.053374 0.097979 
25 0 1 2 3 4 5 6 7 8 9 10 11 12 13 14 15 16 17 18 19 20 21 22 23 24
